<svg id="Logo" xmlns="http://www.w3.org/2000/svg" width="279" height="63.68" viewBox="0 0 279 63.68">
  <g id="Group_1940" data-name="Group 1940">
    <path id="Path_3777" data-name="Path 3777" d="M262.838,345.086,244.022,325.93a5.764,5.764,0,0,0-4.644-1.7l-23.561,2.189a5.762,5.762,0,0,0-3.7,1.829l-8.835,9.573a5.763,5.763,0,0,0,1.189,8.8l4.709,2.931-3.508-4.782a5.138,5.138,0,0,1,.736-6.891l9.435-8.4a5.27,5.27,0,0,1,3.5-1.329h20.52a5.259,5.259,0,0,1,4.059,1.907l16.467,19.981a5.135,5.135,0,0,1,.9,4.94l-10.108,29.393a5.216,5.216,0,0,1-3.948,3.41,5.747,5.747,0,0,0,1.587.076l2.181-.2a5.763,5.763,0,0,0,5.055-4.331l8.259-32.8A5.763,5.763,0,0,0,262.838,345.086Z" transform="translate(-195.221 -324.205)" fill="#bfb800"/>
    <path id="Path_3778" data-name="Path 3778" d="M236.3,380.907a17.737,17.737,0,0,0-.8-3.422,14.747,14.747,0,0,0-1.668-3.326,13.212,13.212,0,0,0-5.927-4.782,13.016,13.016,0,0,0-1.787-.6,14.848,14.848,0,0,0-1.836-.367,12.809,12.809,0,0,0-1.988-.127l-1.443-.01-5.795.041-2.9.061-1.449.03-.181,0-.245.008c-.22.012-.44.023-.659.049s-.437.073-.654.116-.429.114-.641.177a7.218,7.218,0,0,0-4,3.226,6.853,6.853,0,0,0-.931,3.743l.015.321c.007.094.015.14.022.212l.045.4a31.69,31.69,0,0,0,.547,3.171q.1.432.223.863l-.438-.115a21.794,21.794,0,0,0-5.157-.622,21.13,21.13,0,0,0-5.216.588,15.32,15.32,0,0,0-5.1,2.313,13.265,13.265,0,0,0-3.834,4.228,14.3,14.3,0,0,0-1.734,5.191,11.8,11.8,0,0,0-.114,1.386l0,.435v.067l0,.017,0,.035.007.07.014.14.055.558c.073.744.143,1.489.234,2.233.164,1.488.357,2.976.565,4.463s.449,2.973.725,4.459.568,2.97.948,4.453c.38-1.483.677-2.964.948-4.444s.506-2.959.724-4.438.4-2.957.566-4.434c.091-.739.161-1.477.234-2.216a4.915,4.915,0,0,1,.12-.9c.065-.252.14-.536.225-.811a10.031,10.031,0,0,1,1.561-3.019,8.093,8.093,0,0,1,2.348-2.08,10.288,10.288,0,0,1,3.051-1.137,17.414,17.414,0,0,1,3.614-.317,14.133,14.133,0,0,1,6.779,1.482,7.8,7.8,0,0,1,2.338,2.011,8.237,8.237,0,0,1,.844,1.357,7.574,7.574,0,0,1,.327.742c.093.243.177.519.227.7a.138.138,0,0,0,.008.024l0,.008c0,.008,0,0,0-.03v-.069l.011.128.023.276.052.552.11,1.1c.074.736.142,1.473.234,2.21.164,1.474.358,2.948.567,4.423s.451,2.952.727,4.431.571,2.959.954,4.441c.382-1.483.681-2.968.953-4.456s.508-2.976.728-4.466.4-2.981.567-4.474c.092-.746.159-1.492.234-2.238l.11-1.12.051-.56.023-.28.011-.15-.016-.343c-.016-.268-.039-.512-.069-.747.144.027.289.06.433.081a13.239,13.239,0,0,0,3.29.047c.979-.125,1.947-.243,2.922-.385,1.946-.272,3.891-.571,5.837-.953-1.946-.382-3.891-.681-5.837-.954-.971-.143-1.949-.258-2.915-.387a10.948,10.948,0,0,1-2.493-.633,7.9,7.9,0,0,1-2.072-1.163,7.588,7.588,0,0,1-1.575-1.658,11.106,11.106,0,0,1-1.127-2.062,15.913,15.913,0,0,1-.745-2.352,25.822,25.822,0,0,1-.617-5.143l-.005-.331c0-.049,0-.124,0-.152s.009-.03.012-.044a.641.641,0,0,1,.046-.16.86.86,0,0,1,.157-.264.808.808,0,0,1,.5-.273l4.914.1,5.879.04,1.476-.011a6.209,6.209,0,0,1,.922.052,8.8,8.8,0,0,1,2.011.494,6.954,6.954,0,0,1,3.158,2.283,8.313,8.313,0,0,1,1.077,1.807,14.756,14.756,0,0,1,.725,2.2,18.922,18.922,0,0,1,.38,2.474l.062.643.045.729.09,1.459c.261,3.891.581,7.783,1.008,11.674.219,1.946.449,3.891.725,5.837s.568,3.891.948,5.837c.38-1.946.677-3.891.948-5.837s.506-3.891.724-5.837c.427-3.891.747-7.782,1.008-11.674l.09-1.459.045-.73.025-.815A22.241,22.241,0,0,0,236.3,380.907Z" transform="translate(-182.66 -353.198)" fill="#fff"/>
  </g>
  <g id="Group_1943" data-name="Group 1943" transform="translate(90.597 9.643)">
    <g id="Group_1941" data-name="Group 1941" transform="translate(0.066 40.083)">
      <path id="Path_3779" data-name="Path 3779" d="M451.751,478.63H447.7v-8.7h3.914c1.771,0,2.824.88,2.824,2.254a1.973,1.973,0,0,1-1.474,1.982,2.108,2.108,0,0,1,1.672,2.093C454.637,477.7,453.584,478.63,451.751,478.63Zm-.545-7h-1.387v1.82h1.387c.694,0,1.078-.31,1.078-.9S451.9,471.632,451.206,471.632Zm.148,3.369h-1.536v1.92h1.561c.706,0,1.114-.322,1.114-.941S452.061,475,451.355,475Z" transform="translate(-447.701 -469.811)" fill="#bfb800"/>
      <path id="Path_3780" data-name="Path 3780" d="M487.758,471.632H484.55v1.759h2.836v1.635H484.55v1.907h3.208v1.7h-5.326v-8.7h5.326Z" transform="translate(-470.552 -469.811)" fill="#bfb800"/>
      <path id="Path_3781" data-name="Path 3781" d="M515.007,469.935V477h2.774v1.635h-4.892v-8.7Z" transform="translate(-490.59 -469.811)" fill="#bfb800"/>
      <path id="Path_3782" data-name="Path 3782" d="M546.354,471.632h-3.208v1.759h2.836v1.635h-2.836v1.907h3.208v1.7h-5.326v-8.7h5.326Z" transform="translate(-509.104 -469.811)" fill="#bfb800"/>
      <path id="Path_3783" data-name="Path 3783" d="M576.811,471.632H573.6v1.759h2.836v1.635H573.6v1.907h3.208v1.7h-5.326v-8.7h5.326Z" transform="translate(-529.142 -469.811)" fill="#bfb800"/>
      <path id="Path_3784" data-name="Path 3784" d="M601.942,469.935H607.6v1.7H604.06v1.833h2.651v1.648H604.06v3.517h-2.118Z" transform="translate(-549.181 -469.811)" fill="#bfb800"/>
      <path id="Path_3785" data-name="Path 3785" d="M651.159,469.935h2.5l2.44,6.02,2.415-6.02h2.49v8.7h-2.118v-5.215l-1.945,5.215h-1.709l-1.957-5.227v5.227h-2.118Z" transform="translate(-581.562 -469.811)" fill="#bfb800"/>
      <path id="Path_3786" data-name="Path 3786" d="M698.692,478.479a4.453,4.453,0,1,1,4.447-4.459A4.374,4.374,0,0,1,698.692,478.479Zm0-1.933a2.537,2.537,0,1,0-2.3-2.527A2.273,2.273,0,0,0,698.692,476.546Z" transform="translate(-609.894 -469.573)" fill="#bfb800"/>
      <path id="Path_3787" data-name="Path 3787" d="M738.022,478.479a4.453,4.453,0,1,1,4.447-4.459A4.374,4.374,0,0,1,738.022,478.479Zm0-1.933a2.537,2.537,0,1,0-2.3-2.527A2.273,2.273,0,0,0,738.022,476.546Z" transform="translate(-635.77 -469.573)" fill="#bfb800"/>
      <path id="Path_3788" data-name="Path 3788" d="M773.931,469.935h2.118v8.7h-2.118Z" transform="translate(-662.338 -469.811)" fill="#bfb800"/>
      <path id="Path_3789" data-name="Path 3789" d="M818.338,477.094h-3.245l-.52,1.536h-2.217l3.146-8.7h2.453l3.146,8.7h-2.242Zm-1.622-4.818-1.066,3.183h2.143Z" transform="translate(-687.618 -469.811)" fill="#bfb800"/>
      <path id="Path_3790" data-name="Path 3790" d="M851.577,469.935h5.661v1.7H853.7v1.833h2.651v1.648H853.7v3.517h-2.118Z" transform="translate(-713.423 -469.811)" fill="#bfb800"/>
      <path id="Path_3791" data-name="Path 3791" d="M885.807,469.935c2.13,0,3.2,1.226,3.2,2.737a2.531,2.531,0,0,1-1.932,2.515l2.007,3.443h-2.39l-1.809-3.283h-.508v3.283h-2.118v-8.7Zm-.124,1.759H884.37v2.155h1.313c.793,0,1.165-.409,1.165-1.09C886.847,472.115,886.476,471.694,885.683,471.694Z" transform="translate(-733.605 -469.811)" fill="#bfb800"/>
      <path id="Path_3792" data-name="Path 3792" d="M916.73,469.935h2.118v8.7H916.73Z" transform="translate(-756.289 -469.811)" fill="#bfb800"/>
      <path id="Path_3793" data-name="Path 3793" d="M940.4,474.79v3.84h-2.118v-8.7H940.4v3.815l2.9-3.815h2.49l-3.369,4.261,3.493,4.434h-2.589Z" transform="translate(-770.466 -469.811)" fill="#bfb800"/>
      <path id="Path_3794" data-name="Path 3794" d="M978.7,477.094h-3.245l-.521,1.536h-2.217l3.146-8.7h2.453l3.146,8.7h-2.242Zm-1.622-4.818-1.065,3.183h2.143Z" transform="translate(-793.126 -469.811)" fill="#bfb800"/>
    </g>
    <g id="Group_1942" data-name="Group 1942" transform="translate(0 0)">
      <path id="Path_3795" data-name="Path 3795" d="M452.106,361.359v23.55h-4.6V352.394h6.41l5.248,19.462V352.394h4.552v32.514H458.47Z" transform="translate(-447.508 -352.394)" fill="#fff"/>
      <path id="Path_3796" data-name="Path 3796" d="M518.271,352.394v4.552l-9.708,23.317h9.708v4.645H503.314v-4.552l9.708-23.317h-9.243v-4.645Z" transform="translate(-484.224 -352.394)" fill="#fff"/>
      <path id="Path_3797" data-name="Path 3797" d="M560.295,352.394v25.082a3.362,3.362,0,0,0,.719,2.462,3.014,3.014,0,0,0,3.856,0,3.365,3.365,0,0,0,.719-2.462V352.394h4.831v24.757a8.691,8.691,0,0,1-1.928,6.062,8.718,8.718,0,0,1-11.38,0,8.686,8.686,0,0,1-1.928-6.062V352.394Z" transform="translate(-518.352 -352.394)" fill="#fff"/>
      <path id="Path_3798" data-name="Path 3798" d="M620.589,384.908c-.063-.216-.124-.418-.186-.6a4.6,4.6,0,0,1-.163-.7,8.455,8.455,0,0,1-.093-1.068q-.024-.65-.024-1.626V375.8a5.005,5.005,0,0,0-.789-3.205,3.181,3.181,0,0,0-2.555-.929h-1.765v13.238h-5.109V352.394h7.711q3.994,0,5.783,1.858t1.788,5.62v2.555q0,5.017-3.344,6.6a4.577,4.577,0,0,1,2.671,2.578,11.647,11.647,0,0,1,.72,4.343v5.016a20.915,20.915,0,0,0,.093,2.113,6.768,6.768,0,0,0,.465,1.835Zm-5.574-27.87v9.986h2a3.215,3.215,0,0,0,2.253-.743,3.569,3.569,0,0,0,.813-2.694v-3.205a4.128,4.128,0,0,0-.627-2.554,2.369,2.369,0,0,0-1.974-.79Z" transform="translate(-554.354 -352.394)" fill="#fff"/>
      <path id="Path_3799" data-name="Path 3799" d="M664.492,352.394H669.6v32.514h-5.109Z" transform="translate(-590.268 -352.394)" fill="#fff"/>
      <path id="Path_3800" data-name="Path 3800" d="M725.283,384.908h-5.156l-.882-5.9h-6.271l-.883,5.9H707.4l5.2-32.514h7.478ZM713.624,374.6h4.923l-2.462-16.443Z" transform="translate(-618.499 -352.394)" fill="#fff"/>
      <path id="Path_3801" data-name="Path 3801" d="M771.712,366.84h6.6v4.645h-6.6v13.424H766.6V352.394H780.12v4.645h-8.407Z" transform="translate(-657.45 -352.394)" fill="#fff"/>
      <path id="Path_3802" data-name="Path 3802" d="M824,384.908c-.063-.216-.124-.418-.186-.6a4.6,4.6,0,0,1-.163-.7,8.511,8.511,0,0,1-.093-1.068q-.024-.65-.023-1.626V375.8a5,5,0,0,0-.79-3.205,3.18,3.18,0,0,0-2.555-.929h-1.765v13.238h-5.109V352.394h7.711q3.994,0,5.783,1.858t1.788,5.62v2.555q0,5.017-3.344,6.6a4.578,4.578,0,0,1,2.671,2.578,11.654,11.654,0,0,1,.72,4.343v5.016a20.782,20.782,0,0,0,.093,2.113,6.751,6.751,0,0,0,.464,1.835Zm-5.574-27.87v9.986h2a3.215,3.215,0,0,0,2.253-.743,3.569,3.569,0,0,0,.813-2.694v-3.205a4.129,4.129,0,0,0-.627-2.554,2.369,2.369,0,0,0-1.974-.79Z" transform="translate(-688.182 -352.394)" fill="#fff"/>
      <path id="Path_3803" data-name="Path 3803" d="M867.9,352.394h5.109v32.514H867.9Z" transform="translate(-724.096 -352.394)" fill="#fff"/>
      <path id="Path_3804" data-name="Path 3804" d="M900.386,371.949l-1.579,2.973v9.987H893.7V352.394h5.109v14.167l6.689-14.167H910.6L903.5,366.886l7.107,18.022h-5.249Z" transform="translate(-741.069 -352.394)" fill="#fff"/>
      <path id="Path_3805" data-name="Path 3805" d="M963.857,384.908H958.7l-.882-5.9h-6.271l-.883,5.9h-4.691l5.2-32.514h7.478ZM952.2,374.6h4.924l-2.462-16.443Z" transform="translate(-775.464 -352.394)" fill="#fff"/>
    </g>
  </g>
</svg>
